<?xml version="1.0" standalone="no"?>
<!DOCTYPE svg PUBLIC "-//W3C//DTD SVG 20010904//EN"
 "http://www.w3.org/TR/2001/REC-SVG-20010904/DTD/svg10.dtd">
<svg version="1.0" xmlns="http://www.w3.org/2000/svg"
 width="227.000000pt" height="201.000000pt" viewBox="0 0 227.000000 201.000000"
 preserveAspectRatio="xMidYMid meet">

<g transform="translate(0.000000,201.000000) scale(0.100000,-0.100000)"
fill="#000000" stroke="none">
<path d="M494 1950 c-42 -17 -54 -49 -54 -141 l0 -86 -102 -5 c-118 -5 -174
-25 -225 -79 -64 -68 -63 -55 -63 -758 0 -721 -2 -699 75 -770 76 -70 83 -71
649 -71 l500 0 -55 52 c-30 29 -67 70 -83 91 l-28 37 -429 0 -428 0 -15 22
c-14 20 -16 85 -16 510 l0 488 750 0 750 0 0 138 c0 161 -9 200 -57 253 -58
64 -101 81 -225 87 l-108 5 0 88 c0 78 -3 91 -24 115 -18 21 -32 28 -61 28
-29 0 -43 -7 -61 -28 -21 -24 -24 -37 -24 -117 l0 -89 -275 0 -275 0 0 89 c0
79 -3 93 -22 115 -26 29 -63 39 -94 26z"/>
<path d="M1553 1105 c-198 -43 -362 -202 -408 -396 -44 -188 9 -374 145 -509
258 -257 691 -186 855 140 39 78 55 147 55 240 0 152 -47 267 -155 376 -132
134 -311 188 -492 149z m225 -262 c40 -30 71 -93 72 -142 0 -48 -35 -116 -76
-147 -48 -37 -135 -44 -190 -16 -95 48 -129 174 -71 261 59 89 180 109 265 44z
m79 -454 c36 -13 71 -46 90 -83 15 -29 15 -31 -13 -54 -16 -13 -58 -38 -94
-55 -61 -30 -72 -32 -175 -32 -103 0 -114 2 -175 32 -36 17 -78 42 -95 56
l-29 25 27 41 c47 71 77 80 269 81 95 0 179 -5 195 -11z"/>
</g>
</svg>
